<mxfile host="app.diagrams.net" modified="2023-05-29T02:27:04.504Z" agent="Mozilla/5.0 (Macintosh; Intel Mac OS X 10_15_7) AppleWebKit/537.36 (KHTML, like Gecko) Chrome/113.0.0.0 Safari/537.36" etag="GvWiLy0LD7decvVH3IZp" version="21.3.5" type="github">
  <diagram name="第 1 页" id="i7Nl1X1JWIGGdcwZOCES">
    <mxGraphModel dx="733" dy="411" grid="1" gridSize="10" guides="1" tooltips="1" connect="1" arrows="1" fold="1" page="1" pageScale="1" pageWidth="827" pageHeight="1169" math="0" shadow="0">
      <root>
        <mxCell id="0" />
        <mxCell id="1" parent="0" />
        <mxCell id="HTUoIQ_aqMkniWgsbpct-1" value="" style="rounded=0;whiteSpace=wrap;html=1;fillColor=#e1d5e7;strokeColor=#9673a6;" vertex="1" parent="1">
          <mxGeometry x="220" y="240" width="200" height="70" as="geometry" />
        </mxCell>
        <mxCell id="HTUoIQ_aqMkniWgsbpct-2" value="Main Process" style="text;html=1;align=center;verticalAlign=middle;whiteSpace=wrap;rounded=0;fontColor=#000000;" vertex="1" parent="1">
          <mxGeometry x="285" y="240" width="80" height="30" as="geometry" />
        </mxCell>
        <mxCell id="HTUoIQ_aqMkniWgsbpct-3" value="&lt;font style=&quot;font-size: 11px;&quot;&gt;Native API&lt;/font&gt;" style="rounded=0;whiteSpace=wrap;html=1;fillColor=#d5e8d4;strokeColor=#82b366;fontSize=7;" vertex="1" parent="1">
          <mxGeometry x="235" y="280" width="80" height="20" as="geometry" />
        </mxCell>
        <mxCell id="HTUoIQ_aqMkniWgsbpct-4" value="Nodejs" style="rounded=0;whiteSpace=wrap;html=1;fillColor=#d5e8d4;strokeColor=#82b366;" vertex="1" parent="1">
          <mxGeometry x="325" y="280" width="80" height="20" as="geometry" />
        </mxCell>
        <mxCell id="HTUoIQ_aqMkniWgsbpct-5" value="" style="rounded=0;whiteSpace=wrap;html=1;fillColor=#f8cecc;strokeColor=#b85450;" vertex="1" parent="1">
          <mxGeometry x="520" y="220" width="280" height="60" as="geometry" />
        </mxCell>
        <mxCell id="HTUoIQ_aqMkniWgsbpct-6" value="Main Process" style="text;html=1;align=center;verticalAlign=middle;whiteSpace=wrap;rounded=0;fontColor=#FFFFFF;" vertex="1" parent="1">
          <mxGeometry x="620" y="220" width="80" height="30" as="geometry" />
        </mxCell>
        <mxCell id="HTUoIQ_aqMkniWgsbpct-7" value="Render API" style="rounded=0;whiteSpace=wrap;html=1;fillColor=#f5e1e0;strokeColor=#b85450;fontSize=6;fillStyle=auto;gradientColor=none;" vertex="1" parent="1">
          <mxGeometry x="530" y="250" width="80" height="20" as="geometry" />
        </mxCell>
        <mxCell id="HTUoIQ_aqMkniWgsbpct-8" value="Nodejs" style="rounded=0;whiteSpace=wrap;html=1;fillColor=#f5e1e0;strokeColor=#b85450;fontSize=6;fillStyle=auto;gradientColor=none;" vertex="1" parent="1">
          <mxGeometry x="620" y="250" width="80" height="20" as="geometry" />
        </mxCell>
        <mxCell id="HTUoIQ_aqMkniWgsbpct-9" value="Webkit" style="rounded=0;whiteSpace=wrap;html=1;fillColor=#f5e1e0;strokeColor=#b85450;fontSize=6;fillStyle=auto;gradientColor=none;" vertex="1" parent="1">
          <mxGeometry x="710" y="250" width="80" height="20" as="geometry" />
        </mxCell>
      </root>
    </mxGraphModel>
  </diagram>
</mxfile>
